<?xml version="1.0" encoding="utf-8"?>
<svg xmlns="http://www.w3.org/2000/svg" height="19" width="19" viewBox="0 0 19 19">
  <g>
    <path id="path1" transform="rotate(0,9.5,9.5) translate(0.000292172634331678,0) scale(0.59373103142781,0.59373103142781)  " fill="#3910C5" d="M19.312936,27.48445L18.503138,29.66195 20.945698,29.11637z M9,26L15,26C15.553,26 16,26.447 16,27 16,27.552999 15.553,28 15,28L9,28C8.447,28 8,27.552999 8,27 8,26.447 8.447,26 9,26z M9,22L17,22C17.553,22 18,22.447 18,23 18,23.552999 17.553,24 17,24L9,24C8.447,24 8,23.552999 8,23 8,22.447 8.447,22 9,22z M24.539497,21.634649L20.391103,25.734797 22.789213,28.13167 26.978982,24.02963z M27.175086,19.029713L25.962367,20.228328 28.408292,22.630248 29.617089,21.446762z M27.174094,16.668033C27.453588,16.667155,27.732578,16.770657,27.945102,16.97867L31.967052,20.958744 32.00001,21.442764C32.002085,21.73577,31.884045,22.021787,31.677014,22.228793L23.060119,30.665971 22.755067,30.759998 17.325166,31.973008C17.245088,31.992022 17.164156,32.001024 17.085177,32.001024 16.769139,32.001024 16.464087,31.865005 16.252174,31.620004 15.987161,31.315003 15.911111,30.889976 16.054177,30.510969L17.988126,25.310865 18.171108,25.11686 26.400066,16.983675C26.614603,16.774167,26.894601,16.668909,27.174094,16.668033z M12.45406,12.842014C10.423059,12.842014,8.818059,14.14501,8.3910589,16.000005L16.51806,16.000005C16.09106,14.14501,14.486059,12.842014,12.45406,12.842014z M12.453999,6.5260096C11.375007,6.5260096 10.497014,7.4000101 10.497014,8.473011 10.497014,9.5470114 11.375007,10.422012 12.453999,10.422012 13.53299,10.422012 14.410983,9.5470114 14.410983,8.473011 14.410983,7.4000101 13.53299,6.5260096 12.453999,6.5260096z M12.453999,4.5260086C14.635981,4.5260086 16.410967,6.2970095 16.410967,8.473011 16.410967,9.6295428 15.910019,10.671773 15.113229,11.394742L15.092224,11.412909 15.154123,11.440389C17.228036,12.422746,18.62906,14.518166,18.62906,17.000002L18.62906,18 6.2800589,18 6.2800589,17.000002C6.2800589,14.518166,7.6810827,12.422746,9.7546244,11.440389L9.8160233,11.413126 9.7947674,11.394742C8.9979777,10.671773 8.4970293,9.6295428 8.4970293,8.473011 8.4970293,6.2970095 10.272016,4.5260086 12.453999,4.5260086z M0,0L24,0 24,18 22,18 22,2 2,2 2,30 14,30 14,32 0,32z" />
  </g>
</svg>

